# xmcd CD database file
#
# Track frame offsets:
#	150
#	14055
#	23950
#	44980
#	59900
#	77675
#	96825
#	117960
#	129645
#	145680
#	165652
#	177920
#	195000
#	211212
#
# Disc length: 3000 seconds
#
# Revision: 0
# Processed by: cddbd v1.5.2PL0 Copyright (c) Steve Scherf et al.
# Submitted via: ACXtractor (MTCDDB.DLL V2003.12.21)
#
DISCID=c80bb60e
DTITLE=Peter Coad - Face of Australia
DYEAR=2007
DGENRE=Country
TTITLE0=First Day's Dawn
TTITLE1=Singing in a Different Key
TTITLE2=Rufus
TTITLE3=Wattle Flat
TTITLE4=Together
TTITLE5=The Trucking duck
TTITLE6=The Last Charge
TTITLE7=Any Old Day
TTITLE8=The Goodtimes
TTITLE9=Walking with Jesus
TTITLE10=Big Rains are Coming
TTITLE11=The Drovers
TTITLE12=Santa's Outback Run
TTITLE13=Pug N' Pine
EXTD=ID3G:   2 YEAR: 2007
EXTT0=
EXTT1=
EXTT2=
EXTT3=
EXTT4=
EXTT5=
EXTT6=
EXTT7=
EXTT8=
EXTT9=
EXTT10=
EXTT11=
EXTT12=
EXTT13=
PLAYORDER=
